PathFileType	4	(X/Y/Z)	Kaydara	
DataRate	CameraRate	NumFrames	NumMarkers	Units	OrigDataRate	OrigDataStartFrame	OrigNumFrames	
60.00	60.00	4	74	mm	60.00	445	151	
Frame#	Time	Z_lasi			Z_rasi			Z_rpsi			Z_lpsi			Z_fneck			Z_bneck			Z_fhead			Z_rhead			Z_lhead			Z_rshld			Z_relbtop			Z_relbext			Z_relblow			Z_rwrext			Z_rwrtop			Z_rwrlow			Z_lshld			Z_lelbext			Z_lelblow			Z_lelbtop			Z_lwrext			Z_lwrtop			Z_lwrlow			Z_rtopleg			Z_ltopleg			Z_rkneefr			Z_rkneebk			Z_rkneeis			Z_lkneefr			Z_lknssbk			Z_lkneeis			Z_rankfr			Z_rankis			Z_rankbk			Z_lankfr			Z_lankbk			Z_lankis			A_lasi			A_rasi			A_rpsi			A_lpsi			A_fneck			A_bneck			A_fhead			A_rhead			A_lhead			A_rshld			A_relbtop			A_relbext			A_relblow			A_rwrext			A_rwrtop			A_rwrlow			A_lshld			A_lelbext			A_lelblow			A_lelbtop			A_lwrext			A_lwrtop			A_lwrlow			A_rtopleg			A_ltopleg			A_rkneefr			A_rkneebk			A_rkneeis			A_lkneefr			A_lknssbk			A_lkneeis			A_rankfr			A_rankis			A_rankbk			A_lankfr			A_lankbk			A_lankis			
		X1	Y1	Z1	X2	Y2	Z2	X3	Y3	Z3	X4	Y4	Z4	X5	Y5	Z5	X6	Y6	Z6	X7	Y7	Z7	X8	Y8	Z8	X9	Y9	Z9	X10	Y10	Z10	X11	Y11	Z11	X12	Y12	Z12	X13	Y13	Z13	X14	Y14	Z14	X15	Y15	Z15	X16	Y16	Z16	X17	Y17	Z17	X18	Y18	Z18	X19	Y19	Z19	X20	Y20	Z20	X21	Y21	Z21	X22	Y22	Z22	X23	Y23	Z23	X24	Y24	Z24	X25	Y25	Z25	X26	Y26	Z26	X27	Y27	Z27	X28	Y28	Z28	X29	Y29	Z29	X30	Y30	Z30	X31	Y31	Z31	X32	Y32	Z32	X33	Y33	Z33	X34	Y34	Z34	X35	Y35	Z35	X36	Y36	Z36	X37	Y37	Z37	X38	Y38	Z38	X39	Y39	Z39	X40	Y40	Z40	X41	Y41	Z41	X42	Y42	Z42	X43	Y43	Z43	X44	Y44	Z44	X45	Y45	Z45	X46	Y46	Z46	X47	Y47	Z47	X48	Y48	Z48	X49	Y49	Z49	X50	Y50	Z50	X51	Y51	Z51	X52	Y52	Z52	X53	Y53	Z53	X54	Y54	Z54	X55	Y55	Z55	X56	Y56	Z56	X57	Y57	Z57	X58	Y58	Z58	X59	Y59	Z59	X60	Y60	Z60	X61	Y61	Z61	X62	Y62	Z62	X63	Y63	Z63	X64	Y64	Z64	X65	Y65	Z65	X66	Y66	Z66	X67	Y67	Z67	X68	Y68	Z68	X69	Y69	Z69	X70	Y70	Z70	X71	Y71	Z71	X72	Y72	Z72	X73	Y73	Z73	X74	Y74	Z74	

95	7.400	-280.56429	1080.72670	678.85635	-322.97646	1090.00862	477.49203	-146.42558	1116.34743	407.45384	-90.22746	1101.17950	645.12314	-271.31081	1447.81525	571.15482	-158.15023	1511.84631	571.05831	-353.92330	1654.10309	549.31953	-198.59074	1652.13181	484.90925	-205.25328	1650.85922	632.38468	-219.00272	1443.11981	364.02302	-170.36419	1124.79324	275.06956	-158.01266	1104.72435	331.85455	-242.88450	1136.76346	298.20456	-280.96542	903.14690	252.47931	-318.44046	919.11705	273.59659	-305.08776	912.62207	313.99580	-169.59490	1446.35788	756.53305	-124.67862	1132.15828	762.82936	-185.70658	1154.46098	824.81773	-117.19317	1152.75085	830.91248	-258.34661	900.33409	816.21002	-246.67391	893.56506	861.51665	-200.78844	887.93381	853.76190	-189.33998	928.06915	354.88483	-187.57406	893.36571	719.90128	-254.03952	422.55005	400.13256	-182.84033	453.24894	352.71347	-192.45586	431.94054	475.79651	-218.87556	446.30276	672.21817	-112.13424	474.31633	662.04666	-205.82397	443.77819	580.12863	-205.96319	181.46929	376.03317	-183.53136	176.53360	438.59447	-129.57148	175.77065	369.74545	-153.97008	163.79124	669.35196	-96.15744	166.36503	614.51191	-173.54542	173.74773	598.89256	-989.59702	1032.35527	468.40412	-975.31204	1040.20500	627.94006	-1136.24596	1038.55469	648.41789	-1113.72917	1042.05666	465.93460	-1053.91441	1385.48553	555.30712	-1194.77547	1404.39468	546.64120	-1012.99377	1603.64944	581.37741	-1154.47289	1540.69122	657.29912	-1152.18483	1558.94058	495.01602	-1131.68663	1352.57309	733.46428	-1104.28764	1060.75851	767.55890	-1164.98024	1052.08824	745.45898	-1102.17308	1049.19434	709.49089	-1073.77090	814.83284	795.77652	-1032.17186	826.24931	780.58495	-1041.67801	824.94804	741.94572	-1096.18263	1351.29074	376.64532	-1116.30493	1039.64417	361.68034	-1048.56133	1050.69420	384.61460	-1073.70148	1047.18750	336.80779	-1020.07668	823.11020	377.52934	-1020.04486	824.44183	336.10085	-977.48657	835.72540	349.05010	-1080.43388	876.15379	728.64632	-1049.34914	890.27695	390.20496	-1033.65501	453.54958	634.62128	-1138.75183	484.66179	683.47275	-1123.13835	484.96147	564.67552	-1022.17278	465.90343	507.44972	-1103.89023	478.69350	410.62988	-1128.68309	478.58749	534.89182	-1099.13620	164.62921	658.61107	-1134.83688	161.63963	593.82599	-1179.86565	152.14156	664.98047	-1069.41017	165.93790	457.05376	-1129.90074	166.60265	420.88943	-1129.77058	172.58118	510.19386 
96	7.417	-280.70133	1080.70816	678.56071	-323.15174	1089.96849	477.19292	-146.50505	1116.43028	407.11063	-90.41160	1101.29257	644.85062	-271.60892	1447.88223	570.76088	-158.41309	1511.93558	570.65258	-354.49566	1654.08432	549.10015	-199.18087	1652.13593	484.42879	-205.47771	1650.92514	632.00340	-219.30630	1443.23425	363.65704	-170.59719	1124.88770	274.65693	-158.33986	1104.80324	331.55098	-243.09017	1136.84631	297.84237	-281.23098	903.25607	252.03770	-318.69839	919.26559	273.09345	-305.41615	912.73361	313.54153	-170.33382	1446.40366	756.15959	-125.21334	1132.33170	762.68692	-186.32669	1154.71924	824.63219	-117.78393	1153.00003	830.72922	-258.87146	900.67490	816.03439	-247.33845	893.83629	861.33743	-201.42340	888.16177	853.57239	-189.28886	928.09692	354.53354	-187.49853	893.35556	719.53751	-253.98663	422.53494	399.92992	-182.77622	453.25691	352.57229	-192.46370	431.97201	475.70900	-218.84575	446.31889	672.11235	-112.35693	474.30611	662.02286	-205.88711	443.77068	579.98405	-205.92571	181.48722	375.93086	-183.52596	176.56122	438.53981	-129.56111	175.75672	369.69948	-153.90073	163.79614	669.28261	-96.26538	166.18999	614.68231	-173.54153	173.75156	598.81966	-989.39163	1032.52930	468.42888	-975.14389	1040.49965	627.97455	-1136.12122	1038.29147	648.18314	-1113.54813	1041.85387	465.72155	-1054.85550	1384.61578	555.18341	-1195.29991	1405.95001	546.96587	-1010.11604	1601.44196	580.87685	-1152.43309	1541.68594	657.95456	-1150.69740	1559.76151	495.55561	-1133.13599	1351.98914	733.32314	-1104.79515	1060.22568	767.40112	-1165.34439	1051.37817	745.08255	-1102.37572	1048.87917	709.32205	-1073.08937	814.55460	795.47409	-1031.58676	826.14105	780.37949	-1041.12450	824.71573	741.64650	-1097.05002	1351.26358	376.67534	-1116.18263	1039.53781	361.37337	-1048.63075	1050.76439	384.61845	-1073.47290	1047.21764	336.63929	-1020.27298	822.55974	376.12980	-1019.16435	824.68185	336.12438	-976.69296	836.01021	349.27761	-1079.77905	876.20895	728.62846	-1048.54141	890.14595	390.16735	-1033.26462	453.54649	634.49287	-1138.33702	484.72832	683.37540	-1122.74216	485.00675	564.60716	-1021.70853	465.90755	507.38560	-1103.48045	478.67458	410.54161	-1128.24318	478.63331	534.84352	-1099.04922	164.65612	658.56873	-1134.65271	161.67595	593.82332	-1179.75754	152.22842	664.92416	-1069.26231	165.90027	457.06200	-1129.80637	166.62384	420.84312	-1129.61777	172.61755	510.18108 
97	7.433	-280.85169	1080.69771	678.22861	-323.33702	1089.89510	476.87210	-146.61563	1116.48331	406.77971	-90.74175	1101.19003	644.58611	-271.85877	1447.99469	570.37003	-158.73051	1512.02286	570.32013	-354.90265	1654.01489	549.01699	-199.82765	1652.08923	484.00730	-205.75953	1650.93964	631.42570	-219.54910	1443.32062	363.24265	-170.80376	1124.96681	274.38204	-158.69891	1104.86107	331.30203	-243.33553	1136.99425	297.39651	-281.54259	903.36403	251.73372	-318.99334	919.36638	272.65112	-305.74545	912.86026	313.12172	-170.45862	1447.05338	755.89775	-125.62462	1132.53784	762.47215	-186.90487	1154.95949	824.45923	-118.32634	1153.25600	830.64186	-259.45065	900.93178	815.82855	-248.02164	894.05006	861.19827	-201.85814	888.53996	853.22945	-189.32901	928.12996	354.21803	-187.47072	893.34259	719.19281	-253.97011	422.55978	399.74136	-182.73312	453.27038	352.47822	-192.31926	431.96114	475.48859	-218.83204	446.35338	672.01241	-112.38464	474.29489	661.85493	-205.76857	443.85632	579.81049	-205.92552	181.48457	375.85979	-183.51204	176.56858	438.44917	-129.56285	175.76448	369.62715	-153.89481	163.84071	669.26895	-96.02755	166.34983	614.33567	-173.62965	173.72803	598.76408	-989.23645	1032.64626	468.46996	-975.01564	1040.76027	627.84454	-1136.11313	1037.99019	648.03513	-1113.55339	1041.49193	465.27084	-1055.62279	1383.92151	555.18036	-1195.54749	1407.39700	547.41726	-1007.33055	1599.18182	580.41248	-1150.08064	1542.51297	658.53241	-1149.50943	1560.58258	496.32092	-1134.53491	1351.40900	733.16994	-1105.33752	1059.75952	767.14493	-1165.74265	1050.57617	744.57932	-1102.64542	1048.31795	709.03854	-1072.42920	814.10431	795.06706	-1030.88676	825.97130	780.09361	-1040.52437	824.36661	741.25473	-1097.86125	1351.17706	376.57547	-1116.17775	1039.34479	360.95047	-1048.75008	1050.76767	384.55750	-1073.40530	1047.18422	336.47076	-1019.46877	822.50786	376.33408	-1018.39523	824.82414	336.12041	-975.96214	836.27495	349.52309	-1079.46472	876.20094	728.48755	-1048.03375	890.17456	390.16041	-1032.87804	453.53027	634.39728	-1137.91618	484.75986	683.24074	-1122.32605	485.05951	564.54525	-1021.22154	465.87822	507.22950	-1103.08037	478.66570	410.49549	-1127.79930	478.67355	534.76921	-1098.92754	164.67888	658.59222	-1134.49905	161.73462	593.77331	-1179.66064	152.32428	664.90891	-1069.14818	165.87633	457.04903	-1129.65347	166.69735	420.69176	-1129.47746	172.64336	510.15583 
98	7.450	-281.04858	1080.67146	677.91763	-323.56453	1089.81827	476.56567	-146.81745	1116.54778	406.58932	-90.69571	1101.47720	644.28856	-272.09604	1448.12195	570.05581	-159.04152	1511.96732	569.90215	-355.55321	1654.06143	548.99639	-200.48733	1652.07672	483.37063	-205.90799	1650.93307	630.96992	-219.77646	1443.42087	362.93655	-171.04967	1125.02769	274.19964	-159.02250	1104.95445	331.02741	-243.59766	1137.09183	297.04779	-281.84334	903.46375	251.36415	-319.38372	919.50165	272.23665	-306.16985	912.99507	312.61715	-170.90796	1447.26486	755.53833	-125.99293	1132.77519	762.24731	-187.50357	1155.19073	824.24683	-118.95634	1153.48465	830.52147	-260.05144	901.16692	815.70076	-248.57056	894.27795	861.06216	-202.67879	888.72383	853.12302	-189.42884	928.11493	353.93085	-187.48941	893.37547	718.92746	-253.98514	422.56847	399.64432	-182.73624	453.29018	352.36912	-192.20646	431.94168	475.33798	-218.76137	446.37497	671.85501	-112.38155	474.33205	661.66466	-205.71430	443.88733	579.67060	-205.96146	181.49591	375.82104	-183.55169	176.57944	438.40248	-129.56616	175.79250	369.50748	-153.88809	163.87539	669.24080	-96.11049	166.29793	614.39381	-173.64967	173.63644	598.74813	-989.22226	1032.73178	468.47916	-974.98428	1040.83199	627.85339	-1136.07674	1037.72018	647.84042	-1113.46649	1041.31500	465.27012	-1056.32584	1383.13950	555.09396	-1195.65834	1408.80463	547.90745	-1004.73305	1597.10526	579.99619	-1148.10265	1543.24814	659.18396	-1148.40858	1561.61179	496.52580	-1135.58876	1350.79529	733.03429	-1105.75722	1059.20143	766.93565	-1166.21758	1049.86519	744.20143	-1103.02773	1047.74971	708.81668	-1071.97655	813.67577	794.68208	-1030.42145	825.77370	779.91531	-1040.14542	824.01459	740.92773	-1098.48267	1351.07010	376.41533	-1116.27022	1039.16435	360.56839	-1048.89297	1050.73952	384.39064	-1073.49091	1047.11494	336.21994	-1018.69911	822.78564	376.25263	-1017.62383	824.91714	336.06884	-975.45662	836.49612	349.30645	-1079.35410	876.14449	728.33244	-1047.65488	890.13550	390.08018	-1032.43950	453.49617	634.48086	-1137.52449	484.80991	683.18672	-1121.82014	485.05802	564.46102	-1020.82230	465.84240	507.20318	-1102.65343	478.67558	410.47028	-1127.41531	478.71799	534.75220	-1098.85193	164.66635	658.63136	-1134.36836	161.78438	593.78777	-1179.57893	152.41603	664.89464	-1069.05434	165.80397	457.08466	-1129.55688	166.74555	420.61829	-1129.31061	172.65387	510.11410 
